<?xml version="1.0" standalone="no"?>
<!DOCTYPE svg PUBLIC "-//W3C//DTD SVG 20010904//EN"
 "http://www.w3.org/TR/2001/REC-SVG-20010904/DTD/svg10.dtd">
<svg version="1.0" xmlns="http://www.w3.org/2000/svg"
 width="980.000000pt" height="980.000000pt" viewBox="0 0 980.000000 980.000000"
 preserveAspectRatio="xMidYMid meet">

<g transform="translate(0.000000,980.000000) scale(0.100000,-0.100000)"
fill="#000000" stroke="none">
<path d="M4985 6909 c-145 -14 -299 -63 -412 -130 -78 -47 -191 -156 -246
-237 -81 -121 -135 -270 -157 -437 -8 -66 -10 -399 -8 -1260 4 -1161 4 -1171
26 -1258 49 -198 130 -345 255 -463 80 -75 153 -122 247 -160 258 -105 620
-107 873 -5 276 110 444 324 521 661 21 94 21 104 21 1280 l0 1185 -22 101
c-96 433 -372 678 -814 724 -112 11 -166 11 -284 -1z m271 -699 c22 -9 50 -30
60 -46 52 -75 49 -12 54 -1189 3 -605 2 -1135 -1 -1177 -9 -102 -46 -173 -109
-207 -57 -32 -183 -35 -243 -7 -49 24 -92 77 -108 135 -21 69 -20 2307 0 2366
16 47 53 99 85 121 56 36 184 39 262 4z"/>
<path d="M2130 6828 c0 -24 -25 -540 -55 -1148 -30 -608 -55 -1115 -55 -1127
l0 -23 349 0 348 0 6 143 c7 202 38 281 123 322 40 19 145 25 206 12 75 -16
127 -84 147 -192 15 -80 15 -966 0 -1051 -22 -126 -86 -184 -209 -192 -157
-10 -237 57 -260 215 -5 37 -10 166 -10 286 l0 217 -351 0 -351 0 5 -292 c4
-246 8 -308 26 -388 68 -313 205 -505 446 -625 161 -80 391 -117 604 -96 159
15 257 41 380 102 209 103 357 295 420 547 37 146 41 221 41 802 0 704 -8 776
-111 989 -89 182 -235 303 -419 345 -213 49 -429 18 -581 -83 -34 -23 -63 -40
-65 -39 -2 3 32 628 35 635 1 2 236 4 524 5 l522 3 0 335 0 335 -857 3 -858 2
0 -42z"/>
<path d="M6669 6817 c-102 -29 -166 -84 -211 -183 -23 -49 -23 -54 -26 -528
-3 -459 -2 -482 17 -546 50 -164 209 -250 406 -220 145 22 235 102 271 240 12
50 14 134 12 527 -3 457 -4 469 -25 523 -32 79 -74 124 -148 161 -56 27 -78
32 -158 35 -56 3 -110 -1 -138 -9z m165 -228 c53 -25 56 -52 55 -507 0 -295
-4 -427 -12 -452 -25 -72 -125 -88 -171 -26 -21 27 -21 38 -21 475 0 477 1
486 49 509 28 14 70 14 100 1z"/>
<path d="M7653 6773 c-8 -21 -150 -380 -315 -798 -377 -955 -488 -1237 -533
-1350 -19 -49 -35 -93 -35 -98 0 -4 53 -6 118 -5 l117 3 37 92 c20 51 102 258
182 460 80 203 266 675 414 1051 l269 682 -119 0 -119 0 -16 -37z"/>
<path d="M7773 5982 c-106 -38 -164 -97 -200 -203 -16 -49 -18 -98 -18 -534 0
-475 0 -481 23 -536 60 -150 203 -221 398 -197 119 14 203 73 253 178 l26 55
3 484 c3 462 2 487 -17 551 -26 84 -81 149 -157 186 -75 37 -231 45 -311 16z
m182 -222 c54 -21 56 -39 53 -526 l-3 -446 -28 -24 c-19 -16 -40 -24 -67 -24
-102 0 -100 -13 -100 514 0 306 3 453 11 470 19 41 78 57 134 36z"/>
<path d="M6670 4121 c-90 -21 -155 -73 -191 -154 -24 -52 -24 -52 -24 -457 0
-373 1 -409 19 -454 44 -113 135 -170 276 -171 73 0 93 4 142 28 68 33 109 82
135 157 16 50 18 92 18 440 0 344 -2 390 -18 436 -24 70 -75 126 -137 153 -57
24 -164 35 -220 22z m120 -201 c36 -19 40 -63 40 -417 0 -382 -3 -406 -57
-417 -37 -8 -78 7 -92 33 -7 13 -11 148 -11 391 l0 371 25 24 c25 26 63 32 95
15z"/>
<path d="M7140 3505 l0 -605 105 0 105 0 2 243 3 242 118 3 117 3 0 99 0 100
-120 0 -120 0 0 160 0 160 155 0 155 0 0 100 0 100 -260 0 -260 0 0 -605z"/>
<path d="M7720 3505 l0 -605 110 0 110 0 0 245 0 245 120 0 121 0 -3 98 -3 97
-117 3 -118 3 0 159 0 160 150 0 150 0 0 100 0 100 -260 0 -260 0 0 -605z"/>
</g>
</svg>
